#!OML:ASF E:/inclinewalkrobotboard/Project1/Captureday1/Session1/subject1.ASF
:FULLY-SPECIFIED
:DEGREES
263
root 0 0 0 -1.4721250275427225 -1.550369225068742 -3.9692925800766536
lowerback 20.08449605990632 2.9902497548207303 0.07051626352666274
upperback 2.283262313259259 4.036013913992923 -0.4963797446872058
thorax -8.78661050497335 1.9434366140681032 -1.232997960375392
lowerneck -8.533432776451951 -5.9352961830910616 -1.3804883489394206
upperneck -1.1727401822001635 -8.546279016032312 5.662201904153917
head 1.3203222993359747 -3.9228635257882027 1.4693565003751115
rclavicle -2.82564666915525E-16 1.1088260708755195E-15
rhumerus 35.8055899119856 -5.5575989084085045 -30.001406720252376
rradius 148.95584931785464
rwrist -22.673554236318257
rhand -19.783402720115106 -30.823062395369814
rfingers 7.125019999999963
rthumb 6.575967140364289 -60.656470350720795
lclavicle -1.2268848174546047E-15 1.1615654637466922E-15
lhumerus -47.36046059088169 -6.102178235166255 79.63752271659173
lradius 61.94787289024352
lwrist 10.891457128615034
lhand -14.66566030348967 -19.6853806048459
lfingers 7.1250199999998625
lthumb 11.418794606583075 10.082423794046132
rfemur -4.507882393710961 8.36012767499894 34.81239502536906
rtibia 31.137684009102614
rfoot -18.935412436096296 -8.192164695034037
rtoes 4.648020405971499
lfemur -24.961872574289014 0.5483584639687673 -18.14038621835087
ltibia 41.27869966489844
lfoot -1.8306539425106223 -4.847098680715912
ltoes 11.80582946090135
264
root 0 0 0 -1.455621444765995 -1.5021119304118722 -3.963176042447507
lowerback 20.153881572840454 2.965470796468524 0.009868414787478907
upperback 2.276921060249152 4.000090055356928 -0.4648847019870004
thorax -8.829113899470485 1.9278796300941776 -1.162304693672973
lowerneck -8.468429056726173 -5.942619601078659 -1.344627030312936
upperneck -0.9497130847946007 -8.553745250416611 5.609222110839107
head 1.39528514571409 -3.926119820753023 1.444263736598327
rclavicle -3.5850217753173423E-17 9.26438547791522E-16
rhumerus 35.35255880029436 -6.329608264632799 -30.44989075881788
rradius 147.79861728973654
rwrist -21.749100740034393
rhand -19.86098188449963 -30.681309176339326
rfingers 7.1250199999999655
rthumb 6.502079458256091 -60.5183411493485
lclavicle -1.022641461218633E-15 1.0082424460501267E-15
lhumerus -47.33985907362353 -6.083050331049573 79.59637226745981
lradius 61.9323303769603
lwrist 10.91884791028631
lhand -14.70374535348519 -19.618609471695553
lfingers 7.125019999999861
lthumb 11.379383450630499 10.165154370913031
rfemur -8.34576009425291 8.017929885228627 34.25384911151045
rtibia 34.25626845873728
rfoot -16.912856290987374 -8.42338003397553
rtoes 4.953835173338984
lfemur -22.946068400346157 0.28431250548384934 -18.810033797737887
ltibia 40.90381463442746
lfoot -0.6550622053306405 -5.9388891777148975
ltoes 12.170496552877069
265
root 0 0 0 -1.4356780404562692 -1.4304968940327183 -3.9569327028857413
lowerback 20.20991817831214 2.9317300750292166 -0.07113074462077063
upperback 2.2737494148961943 3.9513711936319913 -0.4183891403194382
thorax -8.859298400966075 1.9072292059561575 -1.0621908239997486
lowerneck -8.374598807904613 -5.955836184660599 -1.3067587170851058
upperneck -0.5975076772543773 -8.569186913672862 5.551581890003949
head 1.5085968413502178 -3.9325263307609104 1.415899657108239
rclavicle 2.7893828045760753E-16 5.993923409991835E-16
rhumerus 34.69522194337475 -7.210844448105556 -31.090147676832576
rradius 146.167468865938
rwrist -20.565884821691313
rhand -19.902474668411656 -30.45427885968336
rfingers 7.125019999999967
rthumb 6.462598693803779 -60.293598974787855
lclavicle -8.129536928692478E-16 7.736262955997739E-16
lhumerus -47.30844187021706 -6.072785975628491 79.56809983091071
lradius 61.92049980226267
lwrist 10.949082073817427
lhand -14.73998402058799 -19.55102211393887
lfingers 7.125019999999859
lthumb 11.341331744090748 10.248659928398581
rfemur -12.793429222448427 7.522320021315557 33.53927596341002
rtibia 38.27384858770646
rfoot -14.56392125883093 -8.667349505612062
rtoes 5.6150574608559145
lfemur -20.598708515461972 0.10582303161318674 -19.43871033423707
ltibia 41.41217201172838
lfoot 0.6990657495518775 -7.313743345845933
ltoes 11.930085251740593
266
root 0 0 0 -1.414279144095949 -1.3526376979019163 -3.950370067539726
lowerback 20.26389572386796 2.8862335258058245 -0.17398493694755202
upperback 2.282162535853401 3.886442995812258 -0.3538649227221633
thorax -8.875449414072476 1.8796362115726355 -0.928474203691812
lowerneck -8.239265245231426 -5.969744744942728 -1.2579512830680046
upperneck -0.1476928530633952 -8.581836354053266 5.475076573280168
head 1.6483231412028756 -3.938468084286627 1.3794403090881922
rclavicle 6.671776664009211E-16 1.9244259980178317E-16
rhumerus 33.74817233770669 -8.174825881525779 -31.972241434076473
rradius 144.02030231387175
rwrist -19.131864595266897
rhand -19.905352042088452 -30.14989493632236
rfingers 7.125019999999968
rthumb 6.459703074929138 -59.9911347270785
lclavicle -6.208142022251663E-16 5.144494216241285E-16
lhumerus -47.26800751050113 -6.076469751900684 79.56329260484875
lradius 61.912475877296075
lwrist 10.975984581774675
lhand -14.766733310317854 -19.491726848725346
lfingers 7.125019999999858
lthumb 11.312561431202806 10.320593370406664
rfemur -16.685054113142403 6.814802385864933 32.744671756413894
rtibia 42.872365708342315
rfoot -12.389012527339792 -8.703928386111675
rtoes 6.413548839318734
lfemur -18.189602387242527 -0.04682469572545056 -19.914081404279077
ltibia 42.42069882730837
lfoot 2.0804554755305062 -8.73580606845675
ltoes 11.040610517609991
